<svg width="34" height="34" viewBox="0 0 34 34" fill="none" xmlns="http://www.w3.org/2000/svg">
<rect width="34" height="34" rx="10" fill="#0B3EE3"/>
<mask id="mask0_367_27440" style="mask-type:luminance" maskUnits="userSpaceOnUse" x="9" y="10" width="16" height="14">
<path fill-rule="evenodd" clip-rule="evenodd" d="M10.7124 10.2C11.6213 10.2 12.3581 10.9368 12.3581 11.8457C12.3581 12.7546 11.6213 13.4914 10.7124 13.4914C9.80348 13.4914 9.06665 12.7546 9.06665 11.8457C9.06665 10.9368 9.80348 10.2 10.7124 10.2ZM24.5367 18.0995C24.5367 21.0081 22.1789 23.3659 19.5211 23.3659C16.3618 23.3659 14.0039 21.0081 14.0039 18.0995C14.0039 15.191 16.3618 12.8331 19.5211 12.8331C22.1789 12.8331 24.5367 15.191 24.5367 18.0995ZM12.0289 16.4538C12.0289 15.7267 11.4394 15.1372 10.7123 15.1372C9.98517 15.1372 9.39571 15.7267 9.39571 16.4538V22.0494C9.39571 22.7765 9.98517 23.366 10.7123 23.366C11.4394 23.366 12.0289 22.7765 12.0289 22.0494V16.4538ZM20.5642 17.5469H21.2653V16.857H20.5692V16.0227H19.8076V18.7983C19.8076 19.2369 19.8681 19.5363 19.9942 19.6968C20.1152 19.8626 20.3473 19.9428 20.6903 19.9428C20.8214 19.9428 21.0181 19.9107 21.2703 19.8519L21.235 19.2101L20.8012 19.2208C20.7256 19.2208 20.6701 19.2048 20.6348 19.1673C20.5995 19.1299 20.5793 19.0871 20.5742 19.039C20.5692 18.9855 20.5642 18.9053 20.5642 18.7823V17.5469ZM18.269 16.8623V19.8733H19.0306V16.8623H18.269ZM17.1255 16.7873C17.2587 16.7873 17.3713 16.8321 17.4584 16.9218C17.5454 17.0114 17.5864 17.121 17.5864 17.2555C17.5864 17.39 17.5454 17.4947 17.4584 17.5843C17.3764 17.664 17.2689 17.7089 17.1307 17.7089C16.9975 17.7089 16.8849 17.664 16.7979 17.5744C16.7108 17.4847 16.6647 17.3751 16.6647 17.2456C16.6647 17.1161 16.7108 17.0065 16.7927 16.9168C16.8798 16.8271 16.9924 16.7873 17.1255 16.7873Z" fill="white"/>
</mask>
<g mask="url(#mask0_367_27440)">
<rect x="-15.949" y="-16.1321" width="65.8298" height="65.8298" fill="white"/>
</g>
</svg>
