<svg width="10" height="10" viewBox="0 0 10 10" fill="none" xmlns="http://www.w3.org/2000/svg">
<path d="M5.2105 9.02716C2.7355 9.02716 0.843498 7.17916 0.843498 4.74816C0.843498 2.31716 2.7355 0.447158 5.2105 0.447158C7.6635 0.447158 9.5665 2.31716 9.5665 4.74816C9.5665 7.16816 7.6745 9.02716 5.2105 9.02716ZM5.1665 6.71716C6.1015 6.71716 6.6625 6.25516 6.6625 5.51816C6.6625 5.03416 6.3985 4.69316 5.9365 4.57216C6.3545 4.44016 6.5855 4.11016 6.5855 3.70316C6.5855 3.04316 6.0795 2.64716 5.2325 2.64716C4.4185 2.64716 3.9455 2.93316 3.7695 3.54916H4.4295C4.5615 3.27416 4.7925 3.15316 5.1885 3.15316C5.6505 3.15316 5.9145 3.38416 5.9145 3.76916C5.9145 4.14316 5.6505 4.35216 5.1775 4.35216H4.7815V4.86916H5.1665C5.7055 4.86916 5.9805 5.08916 5.9805 5.51816C5.9805 5.94716 5.6725 6.21116 5.1445 6.21116C4.7375 6.21116 4.4955 6.06816 4.3635 5.76016H3.6925C3.8905 6.38716 4.3855 6.71716 5.1665 6.71716Z" fill="black"/>
</svg>
