<svg width="10" height="10" viewBox="0 0 10 10" fill="none" xmlns="http://www.w3.org/2000/svg">
<path d="M5.2105 9.02716C2.7355 9.02716 0.843498 7.17916 0.843498 4.74816C0.843498 2.31716 2.7355 0.447158 5.2105 0.447158C7.6635 0.447158 9.5665 2.31716 9.5665 4.74816C9.5665 7.16816 7.6745 9.02716 5.2105 9.02716ZM3.7585 6.64016H6.6735V6.06816H4.6055L5.7055 5.11116C6.3765 4.57216 6.6075 4.25316 6.6075 3.73616C6.6075 3.05416 6.0685 2.64716 5.2215 2.64716C4.4075 2.64716 3.9015 2.96616 3.6815 3.60416H4.3965C4.5615 3.32916 4.8145 3.18616 5.2105 3.18616C5.6615 3.18616 5.9475 3.40616 5.9475 3.76916C5.9475 4.08816 5.7825 4.31916 5.2545 4.80316L3.7585 6.07916V6.64016Z" fill="black"/>
</svg>
